<svg id="Layer_5" enable-background="new 0 0 64 64" height="512" viewBox="0 0 64 64" width="512" xmlns="http://www.w3.org/2000/svg"><path d="m17 43v3h-6.95-.1-6.95c1.29-3.24 3.66-5.93 6.69-7.64l7.31-4.11v6.75z" fill="#ccd1d9"/><path d="m61 46h-6.95-.1-6.95v-3-2-6.75l7.31 4.11c1.51.86 2.87 1.96 4 3.25s2.05 2.77 2.69 4.39z" fill="#ccd1d9"/><path d="m19.21 22.89c-1.35.68-2.21 2.07-2.21 3.58v7.53.25 6.75 2 3l.89 1.79c.61 1.21 1.79 2.02 3.11 2.18v-17.97-10z" fill="#aab2bd"/><path d="m44.79 22.89-1.79-.89v10 17.97c1.32-.16 2.5-.97 3.11-2.18l.89-1.79v-3-2-6.75-.25-7.53c0-1.51-.86-2.9-2.21-3.58z" fill="#aab2bd"/><path d="m43 32v17.97c-.16.02-.31.03-.47.03h-2.53l-1.54-4.63c-.28-.82-1.04-1.37-1.9-1.37h-9.12c-.86 0-1.62.55-1.9 1.37l-1.54 4.63h-2.53c-.16 0-.31-.01-.47-.03v-17.97-10-1.47c0-3.56.9-7 2.54-10.02 2.17 2.16 5.16 3.49 8.46 3.49s6.29-1.33 8.46-3.49c1.64 3.02 2.54 6.46 2.54 10.02v1.47z" fill="#e6e9ed"/><path d="m38.46 45.37 1.54 4.63h-7.84-.32-7.84l1.54-4.63c.28-.82 1.04-1.37 1.9-1.37h9.12c.86 0 1.62.55 1.9 1.37z" fill="#fcd770"/><g fill="#ff826e"><path d="m58 49.95c0 .69-.18 1.36-.52 1.96l-3.48 6.09-3.48-6.09c-.34-.6-.52-1.27-.52-1.96 0-2.18 1.77-3.95 3.95-3.95h.1c1.09 0 2.08.44 2.79 1.16.72.71 1.16 1.7 1.16 2.79z"/><path d="m36 53.84c0 .76-.22 1.5-.64 2.13l-3.36 5.03-3.36-5.03c-.42-.63-.64-1.37-.64-2.13 0-2.12 1.72-3.84 3.84-3.84h.32c1.06 0 2.02.43 2.72 1.12.69.7 1.12 1.66 1.12 2.72z"/><path d="m14 49.95c0 .69-.18 1.36-.52 1.96l-3.48 6.09-3.48-6.09c-.34-.6-.52-1.27-.52-1.96 0-2.18 1.77-3.95 3.95-3.95h.1c1.09 0 2.08.44 2.79 1.16.72.71 1.16 1.7 1.16 2.79z"/></g><circle cx="32" cy="27" fill="#69d6f4" r="7"/><path d="m32 2c3.65 1.99 6.56 4.97 8.46 8.51-2.17 2.16-5.16 3.49-8.46 3.49s-6.29-1.33-8.46-3.49c.13-.26.27-.5.42-.75 1.9-3.21 4.65-5.91 8.04-7.76z" fill="#fcd770"/><circle cx="7" cy="24" fill="#fc6e51" r="4"/><circle cx="57" cy="14" fill="#fc6e51" r="4"/><path d="m61.929 45.629c-1.374-3.436-3.907-6.326-7.132-8.14l-6.797-3.823v-7.194c0-1.905-1.059-3.618-2.764-4.472l-1.236-.618v-.852c0-8.096-4.415-15.532-11.521-19.408l-.479-.261-.479.261c-7.106 3.876-11.521 11.313-11.521 19.408v.852l-1.236.618c-1.705.854-2.764 2.566-2.764 4.472v7.194l-6.797 3.823c-3.225 1.814-5.758 4.705-7.132 8.141l-.548 1.37h4.476c-.619.827-.999 1.841-.999 2.951 0 .859.226 1.709.652 2.456l4.348 7.609 4.348-7.608c.426-.748.652-1.597.652-2.457 0-1.11-.38-2.125-1.006-2.951h2.388l.618 1.236c.854 1.705 2.566 2.764 4.472 2.764h6.467c-.584.799-.939 1.775-.939 2.838 0 .957.281 1.885.812 2.684l4.188 6.281 4.188-6.282c.531-.798.812-1.726.812-2.683 0-1.063-.355-2.039-.938-2.838h6.467c1.905 0 3.618-1.059 4.472-2.764l.617-1.236h2.381c-.619.827-.999 1.841-.999 2.951 0 .859.226 1.709.652 2.456l4.348 7.609 4.348-7.608c.426-.748.652-1.597.652-2.457 0-1.11-.38-2.125-1.006-2.951h4.483zm-17.587-21.84c1.022.512 1.658 1.54 1.658 2.683v6.069l-2-1.125v-7.797zm-12.342-20.642c3.024 1.757 5.476 4.239 7.199 7.153-2.001 1.74-4.526 2.7-7.199 2.7s-5.198-.96-7.199-2.7c1.723-2.914 4.175-5.396 7.199-7.153zm-8.149 8.977c2.304 1.861 5.15 2.876 8.149 2.876s5.845-1.015 8.149-2.876c1.194 2.593 1.851 5.449 1.851 8.406v28.47h-1.28l-1.316-3.949c-.409-1.227-1.552-2.051-2.845-2.051h-9.117c-1.293 0-2.437.824-2.846 2.051l-1.316 3.949h-1.28v-28.47c0-2.957.657-5.813 1.851-8.406zm14.762 36.876h-6.451-.324-6.451l1.105-3.316c.137-.41.519-.684.949-.684h9.117c.431 0 .812.274.949.684zm-20.613-22.528c0-1.143.636-2.171 1.658-2.683l.342-.171v7.797l-2 1.125zm-5 23.479c0 .513-.135 1.019-.389 1.464l-2.611 4.569-2.611-4.569c-.254-.445-.389-.951-.389-1.464 0-1.627 1.324-2.951 3.049-2.951 1.627 0 2.951 1.324 2.951 2.951zm5.789-2.609-.789-1.578v-2.764h-2v2h-11.436c1.275-2.408 3.231-4.425 5.619-5.769l9.817-5.522v14.901c-.51-.287-.936-.719-1.211-1.268zm16.211 6.496c0 .562-.165 1.106-.477 1.574l-2.523 3.785-2.523-3.784c-.312-.469-.477-1.014-.477-1.575 0-1.565 1.273-2.838 2.838-2.838h.324c1.565 0 2.838 1.273 2.838 2.838zm22-3.887c0 .513-.135 1.019-.389 1.464l-2.611 4.569-2.611-4.569c-.254-.445-.389-.951-.389-1.464 0-1.627 1.324-2.951 3.049-2.951 1.627 0 2.951 1.324 2.951 2.951zm-9-4.951v-2h-2v2.764l-.789 1.578c-.275.549-.701.981-1.211 1.268v-14.9l9.816 5.523c2.388 1.343 4.344 3.359 5.619 5.768h-11.435z"/><path d="m32 35c4.411 0 8-3.589 8-8s-3.589-8-8-8-8 3.589-8 8 3.589 8 8 8zm0-14c3.309 0 6 2.691 6 6s-2.691 6-6 6-6-2.691-6-6 2.691-6 6-6z"/><path d="m46 39h2v2h-2z"/><path d="m16 39h2v2h-2z"/><path d="m24 39h2v2h-2z"/><path d="m38 39h2v2h-2z"/><path d="m38 35h2v2h-2z"/><path d="m24 35h2v2h-2z"/><path d="m61 13c-1.654 0-3-1.346-3-3v-2h-2v2c0 1.654-1.346 3-3 3h-2v2h2c1.654 0 3 1.346 3 3v2h2v-2c0-1.654 1.346-3 3-3h2v-2zm-4 2.031c-.292-.393-.638-.739-1.031-1.031.393-.292.739-.638 1.031-1.031.292.393.638.739 1.031 1.031-.393.292-.739.638-1.031 1.031z"/><path d="m6 28v2h2v-2c0-1.654 1.346-3 3-3h2v-2h-2c-1.654 0-3-1.346-3-3v-2h-2v2c0 1.654-1.346 3-3 3h-2v2h2c1.654 0 3 1.346 3 3zm1-5.031c.292.393.638.739 1.031 1.031-.393.292-.739.638-1.031 1.031-.292-.393-.638-.739-1.031-1.031.393-.292.739-.638 1.031-1.031z"/><path d="m17 1h2v2h-2z"/><path d="m17 5h2v2h-2z"/><path d="m19 3h2v2h-2z"/><path d="m15 3h2v2h-2z"/><path d="m4 7h2v2h-2z"/><path d="m4 11h2v2h-2z"/><path d="m6 9h2v2h-2z"/><path d="m2 9h2v2h-2z"/><path d="m52 24h2v2h-2z"/><path d="m52 28h2v2h-2z"/><path d="m54 26h2v2h-2z"/><path d="m50 26h2v2h-2z"/><path d="m45 4h2v2h-2z"/><path d="m45 8h2v2h-2z"/><path d="m47 6h2v2h-2z"/><path d="m43 6h2v2h-2z"/></svg>